<?xml version="1.0" encoding="UTF-8"?>
<svg xmlns="http://www.w3.org/2000/svg" fill="whitesmoke" id="Layer_1" data-name="Layer 1" viewBox="0 0 512 512" width="512" height="512"><path d="M306.232,507A5.807,5.807,0,0,0,312,501V459.816c0-20.7-16.607-37.816-37.306-37.816H224.336C203.638,422,187,439.118,187,459.816V501a5.832,5.832,0,0,0,5.8,6ZM199,459.816C199,445.735,210.254,434,224.336,434h50.358C288.776,434,300,445.735,300,459.816V495H199Z"/><path d="M281.457,456H270.14a6,6,0,0,0,0,12h11.317a6,6,0,0,0,0-12Z"/><path d="M363,460.435V501c0,3.313,2.243,6,5.557,6H482.605c3.314,0,6.395-2.687,6.395-6V468.039C489,448.962,473.211,426,454.093,426h-15.78C458.324,420,473,401.965,473,380.2V342h1.524a5.953,5.953,0,0,0,6-5.944,30.929,30.929,0,0,0-30.918-30.89,30.12,30.12,0,0,1-8.758-1.3c-6.446-1.955-11.476-2.94-15.16-2.94a47.556,47.556,0,0,0-8.688.837V276.78A21.009,21.009,0,0,0,395.851,256H262V239.215a117.184,117.184,0,1,0-12,0V256H116.149A21.009,21.009,0,0,0,95,276.78v25.359a36.258,36.258,0,0,0-8.661-1.208A47.412,47.412,0,0,0,39,348.4v31.8C39,401.965,53.676,420,73.687,426H60.932C40.234,426,23,442.762,23,463.461V501c0,3.313,3.081,6,6.4,6H143.443c3.313,0,5.557-2.687,5.557-6V463.461A37.138,37.138,0,0,0,111.905,426H99.15c20.011-6,34.85-24.035,34.85-45.8V342h1.361a5.952,5.952,0,0,0,6-5.944,30.929,30.929,0,0,0-30.918-30.89,31.381,31.381,0,0,1-3.582-.212,5.9,5.9,0,0,0,.139-1.677v-26.5a9,9,0,0,1,9.149-8.78H250v34h-2.5A45.561,45.561,0,0,0,202,347.289v25.293A45.672,45.672,0,0,0,247.5,418h4.023a45.376,45.376,0,0,0,44.824-39.306A30.366,30.366,0,0,0,295.037,318h-8.808A47.049,47.049,0,0,0,262,303.288V268H395.851A9,9,0,0,1,405,276.78v26.5a5.924,5.924,0,0,0,.279,2.248A47.674,47.674,0,0,0,378,348.4v31.8c0,21.766,14.839,39.8,34.85,45.8H397.069A34.109,34.109,0,0,0,363,460.435ZM111.905,438A25.126,25.126,0,0,1,137,463.461V495H35V463.461C35,449.379,46.851,438,60.932,438ZM122,380.2a35.5,35.5,0,0,1-71,0V370h6.561a25.2,25.2,0,0,0,25.122-25.184A2.811,2.811,0,0,1,85.437,342h19.371A23.411,23.411,0,0,0,122,360.687Zm0-32.447A14.787,14.787,0,0,1,117.212,342H122Zm-11.55-30.614c8.335,0,15.422,5.862,17.936,12.862H85.437a14.824,14.824,0,0,0-14.754,14.816A13.19,13.19,0,0,1,57.561,358H51v-9.6a35.49,35.49,0,0,1,35.445-35.472c2.4,0,6.679.886,11.769,2.431A42.02,42.02,0,0,0,110.45,317.138ZM295.037,330A18.33,18.33,0,0,1,297,366.549v-19.26c0-6-1.422-11.289-3.555-17.289ZM285,372.582A33.632,33.632,0,0,1,251.527,406H247.5A33.659,33.659,0,0,1,214,372.582V365h3.25a77.4,77.4,0,0,0,47.885-17.028C269.41,355.891,276,363.68,285,364.958Zm0-25.293v5.2c-6-2.661-10.88-13.282-12.1-16.677a6.087,6.087,0,0,0-4.4-3.851,6.182,6.182,0,0,0-5.6,1.837A64.978,64.978,0,0,1,217.25,353H214v-5.711A33.548,33.548,0,0,1,247.5,314h4.023A33.521,33.521,0,0,1,285,347.289ZM256,227.367A105.184,105.184,0,1,1,361.184,122.184,105.3,105.3,0,0,1,256,227.367ZM461,347.752A14.368,14.368,0,0,1,456.375,342H461Zm-71,.651a35.559,35.559,0,0,1,35.527-35.472c2.4,0,6.746.886,11.836,2.431a42.1,42.1,0,0,0,12.243,1.776c8.335,0,15.429,5.862,17.943,12.862H424.6a14.824,14.824,0,0,0-14.754,14.816A13.191,13.191,0,0,1,396.724,358H390Zm0,31.8V370h6.724a25.2,25.2,0,0,0,25.122-25.184A2.811,2.811,0,0,1,424.6,342h19.371A23.225,23.225,0,0,0,461,360.687V380.2a35.5,35.5,0,0,1-71,0ZM454.093,438C465.688,438,477,454.889,477,468.039V495H375V460.435A22.1,22.1,0,0,1,397.069,438Z"/><path d="M107.155,472h11.378a6,6,0,1,0,0-12H107.155a6,6,0,1,0,0,12Z"/><path d="M446.317,472H457.7a6,6,0,0,0,0-12H446.317a6,6,0,0,0,0,12Z"/><path d="M256,82.616a16.547,16.547,0,0,1,16.528,16.527,6,6,0,1,0,12,0A28.573,28.573,0,0,0,262,71.256V64.238a6,6,0,0,0-12,0v7.018a28.526,28.526,0,0,0,6,56.415,16.524,16.524,0,0,1,.159,33.048c-.053,0-.105-.009-.159-.009s-.106.007-.159.009a16.543,16.543,0,0,1-16.369-16.52,6,6,0,0,0-12,0A28.573,28.573,0,0,0,250,172.086v8.043a6,6,0,1,0,12,0v-8.043a28.526,28.526,0,0,0-6-56.415,16.528,16.528,0,1,1,0-33.055Z"/><path d="M256,27.052a95.132,95.132,0,1,0,95.131,95.132A95.239,95.239,0,0,0,256,27.052Zm0,178.263a83.132,83.132,0,1,1,83.131-83.131A83.225,83.225,0,0,1,256,205.315Z"/><path d="M409,214.252a6,6,0,0,0-6,6v1.061a6,6,0,0,0,12,0v-1.061A6,6,0,0,0,409,214.252Z"/><path d="M415,200.6a6,6,0,0,0-12,0v.7a6,6,0,1,0,12,0Z"/><path d="M415,173.1a6,6,0,0,0-12,0v.326a6,6,0,1,0,12,0Z"/><path d="M415,65.172l13.984,13.8a6.2,6.2,0,0,0,4.336,1.757,6.088,6.088,0,0,0,4.289-1.757,6,6,0,0,0,.024-8.486L413.605,46.444a5.994,5.994,0,0,0-8.48,0L381.089,70.483a6,6,0,0,0,0,8.486,5.778,5.778,0,0,0,8.3,0L403,65.172V146.5a6,6,0,0,0,12,0Z"/><path d="M103,214.252a6,6,0,0,0-6,6v1.061a6,6,0,0,0,12,0v-1.061A6,6,0,0,0,103,214.252Z"/><path d="M109,200.6a6,6,0,0,0-12,0v.7a6,6,0,1,0,12,0Z"/><path d="M109,173.1a6,6,0,0,0-12,0v.326a6,6,0,0,0,12,0Z"/><path d="M109,65.172l13.61,13.8a5.771,5.771,0,0,0,4.149,1.757,5.876,5.876,0,0,0,4.2-1.757,6,6,0,0,0-.023-8.486L106.88,46.444a6.007,6.007,0,0,0-8.491,0L74.347,70.483a6,6,0,0,0,0,8.486,6.228,6.228,0,0,0,8.672,0L97,65.172V146.5a6,6,0,0,0,12,0Z"/><path d="M231.61,53.8a6,6,0,0,0-7.938-3c-1.225.553-2.451,1.145-3.644,1.761a6,6,0,1,0,5.5,10.666c1.009-.52,2.047-1.022,3.084-1.49A6,6,0,0,0,231.61,53.8Z"/><path d="M202.527,64.889a78.246,78.246,0,0,0-24.814,60.942,6,6,0,0,0,5.989,5.716c.095,0,.192,0,.289-.007a6,6,0,0,0,5.709-6.277,66.257,66.257,0,0,1,21.022-51.607,6,6,0,1,0-8.2-8.767Z"/></svg>
